<svg width="24" height="24" viewBox="0 0 24 24" fill="none" xmlns="http://www.w3.org/2000/svg">
<mask id="path-1-outside-1_23009_31" maskUnits="userSpaceOnUse" x="0" y="0" width="24" height="24" fill="black">
<rect fill="white" width="24" height="24"/>
<path fill-rule="evenodd" clip-rule="evenodd" d="M19.2907 18.5313C20.7604 16.8828 21.6536 14.7091 21.6536 12.3268C21.6536 7.17576 17.4779 3 12.3268 3C7.17576 3 3 7.17576 3 12.3268C3 17.4779 7.17576 21.6536 12.3268 21.6536C14.0987 21.6536 15.7552 21.1595 17.166 20.3016L19.7912 20.8647L19.2907 18.5313Z"/>
</mask>
<path d="M19.2907 18.5313L17.5516 16.9807L16.7645 17.8635L17.0126 19.02L19.2907 18.5313ZM17.166 20.3016L17.6547 18.0234L16.7478 17.8289L15.9554 18.3108L17.166 20.3016ZM19.7912 20.8647L19.3026 23.1428L22.8249 23.8984L22.0694 20.376L19.7912 20.8647ZM19.3237 12.3268C19.3237 14.1155 18.6555 15.7426 17.5516 16.9807L21.0298 20.0818C22.8654 18.0231 23.9836 15.3027 23.9836 12.3268H19.3237ZM12.3268 5.32996C16.1911 5.32996 19.3237 8.46256 19.3237 12.3268H23.9836C23.9836 5.88895 18.7647 0.670039 12.3268 0.670039V5.32996ZM5.32996 12.3268C5.32996 8.46256 8.46256 5.32996 12.3268 5.32996V0.670039C5.88895 0.670039 0.670039 5.88895 0.670039 12.3268H5.32996ZM12.3268 19.3237C8.46256 19.3237 5.32996 16.1911 5.32996 12.3268H0.670039C0.670039 18.7647 5.88895 23.9836 12.3268 23.9836V19.3237ZM15.9554 18.3108C14.8991 18.9532 13.6598 19.3237 12.3268 19.3237V23.9836C14.5376 23.9836 16.6113 23.3659 18.3766 22.2923L15.9554 18.3108ZM16.6773 22.5797L19.3026 23.1428L20.2799 18.5866L17.6547 18.0234L16.6773 22.5797ZM22.0694 20.376L21.5688 18.0426L17.0126 19.02L17.5131 21.3534L22.0694 20.376Z" fill="#1F1E1F" mask="url(#path-1-outside-1_23009_31)"/>
</svg>
